<svg xmlns="http://www.w3.org/2000/svg" width="48" height="49" fill="none" focusable="false" class="lazy-loaded" aria-busy="false"><path fill="#F8C77E" d="M40 17C40 7.56 31.83.03 22.17 1.1 14.83 1.92 8.9 7.85 8.1 15.2c-.57 5.24 1.39 10.03 4.81 13.32 2.7 2.6 4.09 6.28 4.09 10.03V40h14v-1.68c0-3.65 1.36-7.22 4.01-9.73C38.08 25.68 40 21.57 40 17Z"></path><path fill="#fff" d="M28 40h-2V25c0-1.1-.9-2-2-2s-2 .9-2 2v15h-2V25c0-2.21 1.79-4 4-4s4 1.79 4 4v15Z"></path><path fill="#788FA5" d="M31 44H17v2h14v-2ZM31 41H17v2h14v-2ZM18 47h12v.15c0 1.02-.83 1.85-1.85 1.85h-8.3c-1.02 0-1.85-.83-1.85-1.85V47Z"></path></svg>